<?xml version="1.0" standalone="no"?>
<!DOCTYPE svg PUBLIC "-//W3C//DTD SVG 20010904//EN"
 "http://www.w3.org/TR/2001/REC-SVG-20010904/DTD/svg10.dtd">
<svg version="1.0" xmlns="http://www.w3.org/2000/svg"
 width="500.000000pt" height="500.000000pt" viewBox="0 0 500.000000 500.000000"
 preserveAspectRatio="xMidYMid meet">
<metadata>
Created by potrace 1.15, written by Peter Selinger 2001-2017
</metadata>
<g transform="translate(0.000000,500.000000) scale(0.100000,-0.100000)"
fill="#000000" stroke="none">
<path d="M2295 4585 c-146 -20 -275 -49 -399 -90 -679 -225 -1192 -778 -1364
-1470 -30 -119 -36 -149 -48 -255 -3 -30 -17 -88 -30 -128 l-25 -73 3 -377 c3
-376 3 -377 27 -424 31 -61 74 -102 148 -141 33 -18 77 -45 97 -61 53 -42 100
-55 199 -56 85 0 90 1 118 29 l29 30 -2 651 -3 652 -29 25 c-29 24 -34 25
-130 21 -107 -5 -137 -15 -196 -65 l-32 -27 6 30 c4 16 9 43 12 59 35 193 149
468 274 656 357 539 947 859 1585 860 316 0 598 -65 865 -202 218 -111 352
-211 525 -391 240 -251 412 -572 484 -908 12 -52 21 -96 21 -98 0 -1 -17 11
-37 27 -56 44 -113 61 -210 61 -80 0 -86 -2 -114 -29 l-29 -29 0 -647 0 -647
29 -29 c20 -19 40 -29 60 -29 17 0 31 -3 31 -6 0 -19 -45 -177 -71 -249 -107
-295 -326 -571 -597 -753 l-52 -35 -42 19 c-23 10 -58 18 -77 17 -40 -1 -287
-96 -411 -156 -57 -28 -87 -79 -84 -141 8 -133 118 -189 254 -129 25 11 108
44 184 74 158 61 202 94 212 158 6 35 14 44 83 89 97 63 144 102 250 205 244
239 404 538 476 889 3 19 14 30 39 38 18 6 51 26 72 44 21 18 59 42 85 53 62
28 115 77 147 137 l27 51 3 382 3 382 -24 63 c-13 35 -30 106 -37 158 -92 712
-561 1333 -1231 1629 -129 57 -326 115 -482 142 -155 27 -447 34 -592 14z"/>
<path d="M1895 3113 c-3 -10 -9 -55 -12 -100 -4 -58 -9 -80 -18 -77 -14 6 -30
-166 -20 -209 4 -14 2 -28 -4 -31 -14 -9 9 -46 29 -46 8 0 40 10 70 21 30 12
82 28 115 36 123 29 139 34 125 43 -11 7 -7 11 14 20 16 6 29 9 30 8 16 -42
39 -67 76 -85 110 -56 211 -4 275 143 34 78 44 121 26 109 -6 -3 -13 11 -16
32 -4 21 -9 46 -12 56 -2 9 0 17 6 17 5 0 3 13 -5 29 -17 34 -58 51 -121 51
-41 0 -113 -22 -113 -35 0 -3 10 -1 23 6 13 7 5 -6 -22 -34 -24 -26 -48 -44
-52 -41 -4 2 -11 -1 -15 -7 -4 -8 -3 -9 4 -5 18 11 14 -6 -9 -34 l-20 -25 11
25 c11 24 11 24 -6 5 -33 -40 -56 -105 -51 -146 4 -39 4 -39 -32 -40 -20 -1
-40 -1 -45 0 -5 1 -30 -2 -55 -8 -76 -16 -115 -22 -108 -15 3 4 32 12 64 19
32 7 48 13 35 14 -13 1 -43 -4 -68 -10 -25 -6 -47 -9 -51 -6 -3 3 0 57 6 119
18 189 18 193 -2 190 -10 -2 -17 3 -17 13 0 21 -26 19 -35 -2z m623 -111 c5
-48 -22 -117 -68 -177 -51 -66 -89 -84 -125 -61 -32 21 -40 55 -25 103 23 70
49 111 85 133 19 12 35 26 35 31 0 6 21 9 48 7 45 -3 47 -4 50 -36z"/>
<path d="M2687 3101 c-7 -17 -16 -28 -20 -25 -4 4 -2 13 4 21 8 9 8 13 1 13
-15 0 -29 -57 -41 -169 -15 -141 12 -245 67 -257 15 -3 33 -7 40 -10 7 -2 35
7 61 21 55 27 70 21 72 -29 1 -30 1 -30 9 -6 l8 25 1 -27 c1 -31 8 -34 33 -15
13 11 19 43 27 163 6 82 13 177 16 212 5 67 -1 94 -16 71 -7 -11 -9 -10 -9 3
0 23 -18 32 -35 18 -11 -10 -15 -10 -15 -1 0 7 -4 9 -10 6 -6 -3 -10 -48 -10
-100 l0 -94 -67 -75 c-36 -42 -70 -76 -74 -76 -27 0 -18 165 15 273 15 51 10
76 -10 50 -13 -17 -14 -16 -11 6 3 36 -21 37 -36 2z"/>
<path d="M3016 3061 c-36 -160 -45 -314 -20 -343 14 -15 15 -20 3 -35 -9 -11
-10 -14 -1 -9 7 4 12 1 12 -8 0 -9 5 -16 10 -16 6 0 10 3 10 8 0 4 22 7 49 7
69 0 193 64 238 123 30 39 33 50 33 111 0 59 -4 74 -31 114 -32 49 -109 106
-143 108 -12 1 -49 2 -83 3 l-62 3 -15 -66z m241 -41 c-1 -3 5 -16 12 -29 17
-30 9 -81 -19 -126 -20 -33 -74 -60 -156 -81 l-26 -7 6 54 c13 106 29 184 40
192 12 8 145 6 143 -3z"/>
<path d="M2756 2491 c-68 -4 -101 -10 -104 -19 -3 -10 -7 -10 -20 0 -12 11
-16 11 -20 0 -3 -10 -7 -10 -18 -1 -16 13 -15 19 -18 -98 l-3 -92 -68 -76
c-49 -55 -71 -73 -79 -65 -16 16 -10 122 13 225 13 57 16 94 10 100 -6 5 -9 2
-10 -10 -1 -17 -2 -16 -7 3 -10 34 -25 31 -45 -8 -17 -32 -18 -33 -14 -8 7 47
-10 21 -24 -34 -7 -29 -13 -105 -13 -168 -1 -98 2 -121 20 -155 28 -54 75 -63
148 -29 55 26 66 21 66 -29 0 -16 4 -26 10 -22 6 3 10 1 10 -4 0 -17 21 -13
39 8 14 16 20 59 30 208 7 103 15 191 19 195 10 9 122 14 122 6 0 -5 -25 -8
-55 -8 -34 0 -55 -4 -55 -11 0 -8 19 -10 56 -7 l56 5 -6 -46 c-8 -62 -23 -163
-28 -181 -1 -8 3 -14 10 -13 7 2 12 -7 11 -20 0 -12 -3 -16 -6 -9 -2 6 -9 12
-14 12 -6 0 -8 -4 -4 -9 3 -6 1 -28 -4 -51 -12 -53 1 -91 36 -107 l26 -12 -7
54 c-3 32 -2 56 4 60 6 4 10 -10 10 -34 0 -44 8 -71 20 -71 5 0 4 15 -1 33
-10 36 -1 109 37 301 13 66 29 123 36 128 7 4 29 8 49 8 38 0 63 15 72 43 6
15 -2 17 -91 15 -53 -1 -142 -4 -196 -7z"/>
<path d="M3497 2454 c-32 -24 -62 -44 -65 -44 -4 0 -18 -20 -31 -45 -22 -42
-23 -46 -7 -69 20 -32 42 -44 97 -52 54 -8 99 -30 99 -48 0 -37 -106 -90 -170
-84 -30 3 -35 0 -38 -21 -3 -16 6 -32 28 -52 17 -16 37 -29 43 -29 7 0 6 -4
-3 -10 -20 -13 -9 -12 46 1 24 6 44 15 44 20 0 5 6 9 14 9 21 0 112 86 126
119 11 26 9 34 -10 61 -25 35 -96 86 -134 96 -22 5 -24 9 -14 21 18 22 104 63
133 63 32 0 68 30 38 31 -17 0 -17 1 0 8 18 6 18 7 0 22 -20 18 -48 30 -78 35
-11 2 -29 6 -40 8 -13 3 -41 -11 -78 -40z"/>
<path d="M1545 2481 c-3 -2 0 -10 6 -18 8 -9 8 -17 1 -26 -6 -7 -13 -29 -16
-48 -2 -19 -12 -68 -21 -109 -8 -41 -18 -108 -21 -150 -3 -41 -7 -87 -9 -101
-6 -38 31 -47 62 -16 19 18 24 40 33 132 5 60 13 125 16 144 7 35 7 35 28 -31
32 -97 60 -123 84 -75 11 20 11 20 5 -7 -9 -42 13 -25 28 22 16 49 49 115 55
109 3 -3 -3 -47 -12 -98 -21 -121 -20 -200 3 -216 14 -11 21 -8 44 19 23 29
27 44 33 128 4 52 9 109 11 125 2 17 7 62 10 101 5 62 3 74 -15 97 -29 37 -56
34 -81 -8 -22 -37 -37 -49 -19 -15 21 40 -1 19 -36 -35 -20 -30 -40 -52 -44
-50 -5 3 -11 23 -15 45 -8 50 -53 91 -96 88 -17 -1 -32 -4 -34 -7z"/>
<path d="M2083 2479 c-18 -5 -35 -15 -39 -21 -5 -8 -2 -9 11 -4 11 4 5 -7 -16
-31 -19 -21 -45 -51 -58 -68 l-23 -30 17 29 c9 16 12 25 6 22 -6 -4 -25 -31
-41 -59 -98 -171 73 -362 232 -257 60 40 71 53 107 137 29 66 44 139 22 104
-6 -10 -11 3 -15 40 -3 30 -5 61 -5 69 5 37 -3 49 -41 64 -44 17 -107 19 -157
5z m135 -122 c5 -61 -26 -133 -85 -193 -28 -30 -60 -54 -70 -54 -21 0 -56 33
-66 62 -12 35 51 177 79 178 6 0 21 11 34 25 20 21 32 25 65 23 39 -3 40 -4
43 -41z"/>
<path d="M3046 2396 c-44 -216 -57 -324 -36 -311 6 3 10 -4 10 -17 0 -18 2
-20 10 -8 8 12 10 12 16 -3 3 -9 12 -17 19 -17 12 0 23 46 38 160 2 11 19 16
70 18 64 3 68 2 63 -16 -4 -11 -13 -55 -20 -98 -14 -78 -12 -109 5 -83 7 11 9
10 9 -3 0 -28 27 -21 38 10 l10 27 2 -30 c2 -30 2 -30 11 -5 22 61 93 493 72
443 -7 -19 -21 -16 -28 7 -9 27 -41 26 -48 -2 -3 -13 -8 -45 -12 -73 -12 -101
-7 -95 -85 -95 -39 0 -70 2 -70 5 0 4 16 87 26 133 4 20 2 23 -16 17 -16 -5
-20 -2 -20 14 0 15 -6 20 -23 19 -20 -2 -24 -12 -41 -92z"/>
</g>
</svg>
